<svg width="899" height="887" viewBox="0 0 899 887" fill="none" xmlns="http://www.w3.org/2000/svg">
<rect width="37.6635" height="37.6635" transform="matrix(0.710432 -0.703766 0.710432 0.703766 425.85 298.593)" fill="black"/>
<path fill-rule="evenodd" clip-rule="evenodd" d="M451.467 886L1 445.6L82.3263 366.091L532.793 806.491L451.467 886Z" fill="black" stroke="black"/>
<path fill-rule="evenodd" clip-rule="evenodd" d="M445.918 593.898L152.023 297.761L232.975 218.922L526.871 515.058L445.918 593.898Z" fill="black" stroke="black"/>
<path fill-rule="evenodd" clip-rule="evenodd" d="M532.669 80.8509L229.944 378.237L150.008 298.386L452.734 0.99999L532.669 80.8509Z" fill="black" stroke="black"/>
<path fill-rule="evenodd" clip-rule="evenodd" d="M750.885 298.266L598.261 448.208L518.323 368.36L670.947 218.418L750.885 298.266Z" fill="black" stroke="black"/>
<path fill-rule="evenodd" clip-rule="evenodd" d="M666.825 374.152L372.929 80.5147L453.543 1.33629L747.439 294.973L666.825 374.152Z" fill="black" stroke="black"/>
<path fill-rule="evenodd" clip-rule="evenodd" d="M898 445.544L453.372 886L373.1 806.481L817.728 366.026L898 445.544Z" fill="black" stroke="black"/>
</svg>
